# xmcd
#
# Track frame offsets: 
#        150
#        9600
#        36172
#        46086
#        61867
#        77277
#        97950
#        105605
#        129519
#        146504
#        167058
#        182268
#        204722
#        231793
#        241827
#
# Disc length: 3433 seconds
#
# Revision: 2
# Processed by: cddbd v1.5.2PL0 Copyright (c) Steve Scherf et al.
# Submitted via: ExactAudioCopy v0.99pb4
#
DISCID=b20d670f
DTITLE=Bob Brozman - Post-Industrial Blues
DYEAR=2007
DGENRE=Blues
TTITLE0=Follow The Money
TTITLE1=Look At New Orleans
TTITLE2=Old Man´S Blues
TTITLE3=Airport Blues
TTITLE4=Shafafa
TTITLE5=Lonely Children
TTITLE6=Let´S Get It Bob
TTITLE7=Three Families Blues
TTITLE8=Strange Ukulele Blues
TTITLE9=Green River Blues
TTITLE10=Crooked People
TTITLE11=Rolling Through This World
TTITLE12=Slow Motion Blues
TTITLE13=People Are Strange
TTITLE14=How I Love That Woman
EXTD=
EXTT0=
EXTT1=
EXTT2=
EXTT3=
EXTT4=
EXTT5=
EXTT6=
EXTT7=
EXTT8=
EXTT9=
EXTT10=
EXTT11=
EXTT12=
EXTT13=
EXTT14=
PLAYORDER=
